<svg width="30px" height="30px" viewBox="0 0 30 30" xmlns="http://www.w3.org/2000/svg"><g stroke="none" stroke-width="1" fill="none" fill-rule="evenodd"><g fill="#A7A5A5"><path d="M15,30 C23.2842712,30 30,23.2842712 30,15 C30,6.71572875 23.2842712,0 15,0 C6.71572875,0 0,6.71572875 0,15 C0,23.2842712 6.71572875,30 15,30 Z M13.6602504,24 L13.6602504,15.7894026 L11,15.7894026 L11,12.5895297 L13.6602504,12.5895297 L13.6602504,10.2297426 C13.6602504,7.49118208 15.270581,6 17.6227469,6 C18.7493817,6 19.7176912,6.08714649 20,6.12607245 L20,8.98800445 L18.3685593,8.98879886 C17.0894118,8.98879886 16.841751,9.62011439 16.841751,10.5465523 L16.841751,12.5895297 L19.8924611,12.5895297 L19.4951941,15.7894026 L16.841751,15.7894026 L16.841751,24 L13.6602504,24 Z"></path></g></g></svg>
