<svg width="30px" height="30px" viewBox="0 0 30 30" xmlns="http://www.w3.org/2000/svg"><g stroke="none" stroke-width="1" fill="none" fill-rule="evenodd"><g fill="#A7A5A5"><path d="M15,30 C23.2842712,30 30,23.2842712 30,15 C30,6.71572875 23.2842712,0 15,0 C6.71572875,0 0,6.71572875 0,15 C0,23.2842712 6.71572875,30 15,30 Z M24,9.6572928 C23.3377154,9.93839174 22.6259849,10.1283745 21.8789641,10.2138196 C22.6414573,9.7763865 23.2269725,9.08375267 23.5027104,8.25847744 C22.7892022,8.66345903 21.9988588,8.95760156 21.1576868,9.11614111 C20.4840119,8.42924142 19.524262,8 18.462131,8 C16.4226051,8 14.7690991,9.5824339 14.7690991,11.5342473 C14.7690991,11.8112504 14.8018216,12.0810071 14.8647646,12.3396736 C11.7955668,12.1922873 9.07446505,10.7852173 7.25306705,8.64694974 C6.93519148,9.16894562 6.75307802,9.77607144 6.75307802,10.4237773 C6.75307802,11.6499383 7.40509163,12.7317376 8.39598376,13.3655177 C7.79058488,13.3471811 7.22120048,13.1882005 6.7232525,12.9234848 C6.72298914,12.9382297 6.72298914,12.9530377 6.72298914,12.9679086 C6.72298914,14.6803374 7.99593987,16.1088317 9.68532865,16.4334723 C9.37541973,16.5142543 9.04918249,16.5574179 8.712345,16.5574179 C8.47439921,16.5574179 8.24303742,16.5353005 8.01760123,16.4940273 C8.48750137,17.8981987 9.85131131,18.9200101 11.4672885,18.9485548 C10.2034237,19.8964524 8.61108307,20.4614858 6.88093932,20.4614858 C6.5828816,20.4614858 6.28890596,20.4447875 6,20.412147 C7.6342807,21.4149286 9.57544168,22 11.660924,22 C18.453506,22 22.1679359,16.6145073 22.1679359,11.9440809 C22.1679359,11.7908344 22.1643806,11.638407 22.1572698,11.4868619 C22.8787447,10.9885587 23.5048831,10.3660578 24,9.6572928 Z"></path></g></g></svg>
