<?xml version="1.0" encoding="UTF-8" standalone="no"?>
<svg width="30px" height="30px" viewBox="0 0 30 30" version="1.1" xmlns="http://www.w3.org/2000/svg" xmlns:xlink="http://www.w3.org/1999/xlink" xmlns:sketch="http://www.bohemiancoding.com/sketch/ns">
    <!-- Generator: Sketch 3.4 (15575) - http://www.bohemiancoding.com/sketch -->
    <title>Artboard</title>
    <desc>Created with Sketch.</desc>
    <defs></defs>
    <g id="Page-1" stroke="none" stroke-width="1" fill="none" fill-rule="evenodd" sketch:type="MSPage">
        <g id="Artboard" sketch:type="MSArtboardGroup" fill="#A7A5A5">
            <path d="M15,30 C23.2842712,30 30,23.2842712 30,15 C30,6.71572875 23.2842712,0 15,0 C6.71572875,0 0,6.71572875 0,15 C0,23.2842712 6.71572875,30 15,30 Z M23.7175946,9.80742857 L18.3402162,14.4426122 L14.9995135,17.1940408 L11.6838649,14.4636735 L6.28240541,9.80742857 C6.24981081,9.90906122 6.22743243,10.0155918 6.22743243,10.128 L6.22743243,19.9359184 C6.22743243,19.9995918 6.23521622,20.0610612 6.24713514,20.1210612 C6.33275676,20.6182041 6.76281081,21 7.27994595,21 L22.712027,21 C23.1768649,21 23.5687297,20.690449 23.7066486,20.2672653 L23.7124865,20.2731429 C23.7487297,20.1663673 23.7725676,20.0542041 23.7725676,19.9359184 L23.7725676,10.128 C23.7725676,10.0155918 23.7504324,9.90906122 23.7175946,9.80742857 Z M13.470973,14.7017143 L14.9744595,15.9333061 L17.2448919,14.073551 L22.9922432,9.12073469 C22.8978649,9.09257143 22.7998378,9.07273469 22.6967027,9.07273469 L7.25318919,9.07273469 C7.14981081,9.07273469 7.05178378,9.09257143 6.95716216,9.12097959 L12.7079189,14.0764898 L13.470973,14.7017143 Z" id="Oval-5" sketch:type="MSShapeGroup"></path>
        </g>
    </g>
</svg>